HIERARCHY
ROOT hip
{
  OFFSET 0 0 0
  CHANNELS 6 Xposition Yposition Zposition Zrotation Yrotation Xrotation
  JOINT abdomen
  {
    OFFSET 0 20.6881 -0.73152
    CHANNELS 3 Zrotation Xrotation Yrotation
    JOINT chest
    {
      OFFSET 0 11.7043 -0.48768
      CHANNELS 3 Zrotation Xrotation Yrotation
      JOINT neck
      {
        OFFSET 0 22.1894 -2.19456
        CHANNELS 3 Zrotation Xrotation Yrotation
        JOINT head
        {
          OFFSET -0.24384 7.07133 1.2192
          CHANNELS 3 Zrotation Xrotation Yrotation
          JOINT leftEye
          {
            OFFSET 4.14528 8.04674 8.04672
            CHANNELS 3 Zrotation Xrotation Yrotation
            End Site
            {
              OFFSET 1 0 0
            }
          }
          JOINT rightEye
          {
            OFFSET -3.6576 8.04674 8.04672
            CHANNELS 3 Zrotation Xrotation Yrotation
            End Site
            {
              OFFSET 1 0 0
            }
          }
        }
      }
      JOINT rCollar
      {
        OFFSET -2.68224 19.2634 -4.8768
        CHANNELS 3 Zrotation Xrotation Yrotation
        JOINT rShldr
        {
          OFFSET -8.77824 -1.95073 1.46304
          CHANNELS 3 Zrotation Xrotation Yrotation
          JOINT rForeArm
          {
            OFFSET -28.1742 -1.7115 0.48768
            CHANNELS 3 Zrotation Xrotation Yrotation
            JOINT rHand
            {
              OFFSET -22.5879 0.773209 7.07136
              CHANNELS 3 Zrotation Xrotation Yrotation
              JOINT rThumb1
              {
                OFFSET -1.2192 -0.487915 3.41376
                CHANNELS 3 Zrotation Xrotation Yrotation
                JOINT rThumb2
                {
                  OFFSET -3.37035 -0.52449 3.41376
                  CHANNELS 3 Zrotation Xrotation Yrotation
                  End Site
                  {
                    OFFSET -1.78271 -1.18214 1.43049
                  }
                }
              }
              JOINT rIndex1
              {
                OFFSET -7.75947 0.938293 5.60832
                CHANNELS 3 Zrotation Xrotation Yrotation
                JOINT rIndex2
                {
                  OFFSET -2.54057 -0.884171 1.56538
                  CHANNELS 3 Zrotation Xrotation Yrotation
                  End Site
                  {
                    OFFSET -1.62519 -0.234802 1.16502
                  }
                }
              }
              JOINT rMid1
              {
                OFFSET -8.24714 1.18213 3.41376
                CHANNELS 3 Zrotation Xrotation Yrotation
                JOINT rMid2
                {
                  OFFSET -3.10165 -0.590103 1.0647
                  CHANNELS 3 Zrotation Xrotation Yrotation
                  End Site
                  {
                    OFFSET -2.48547 -0.328903 0.83742
                  }
                }
              }
              JOINT rRing1
              {
                OFFSET -8.82822 0.546677 1.51678
                CHANNELS 3 Zrotation Xrotation Yrotation
                JOINT rRing2
                {
                  OFFSET -2.60934 -0.819778 -0.0198488
                  CHANNELS 3 Zrotation Xrotation Yrotation
                  End Site
                  {
                    OFFSET -2.33842 -0.294052 0.168128
                  }
                }
              }
              JOINT rPinky1
              {
                OFFSET -8.27202 -0.0477905 -0.4584
                CHANNELS 3 Zrotation Xrotation Yrotation
                JOINT rPinky2
                {
                  OFFSET -1.82734 -0.647385 -0.700984
                  CHANNELS 3 Zrotation Xrotation Yrotation
                  End Site
                  {
                    OFFSET -1.69225 -0.51767 -0.607171
                  }
                }
              }
            }
          }
        }
      }
      JOINT lCollar
      {
        OFFSET 2.68224 19.2634 -4.8768
        CHANNELS 3 Zrotation Xrotation Yrotation
        JOINT lShldr
        {
          OFFSET 8.77824 -1.95073 1.46304
          CHANNELS 3 Zrotation Xrotation Yrotation
          JOINT lForeArm
          {
            OFFSET 28.1742 -1.7115 0.48768
            CHANNELS 3 Zrotation Xrotation Yrotation
            JOINT lHand
            {
              OFFSET 22.5879 0.773209 7.07136
              CHANNELS 3 Zrotation Xrotation Yrotation
              JOINT lThumb1
              {
                OFFSET 1.2192 -0.487915 3.41376
                CHANNELS 3 Zrotation Xrotation Yrotation
                JOINT lThumb2
                {
                  OFFSET 3.37035 -0.52449 3.41376
                  CHANNELS 3 Zrotation Xrotation Yrotation
                  End Site
                  {
                    OFFSET 1.78271 -1.18214 1.43049
                  }
                }
              }
              JOINT lIndex1
              {
                OFFSET 7.75947 0.938293 5.60832
                CHANNELS 3 Zrotation Xrotation Yrotation
                JOINT lIndex2
                {
                  OFFSET 2.54057 -0.884171 1.56538
                  CHANNELS 3 Zrotation Xrotation Yrotation
                  End Site
                  {
                    OFFSET 1.62519 -0.234802 1.16502
                  }
                }
              }
              JOINT lMid1
              {
                OFFSET 8.24714 1.18213 3.41376
                CHANNELS 3 Zrotation Xrotation Yrotation
                JOINT lMid2
                {
                  OFFSET 3.10165 -0.590103 1.0647
                  CHANNELS 3 Zrotation Xrotation Yrotation
                  End Site
                  {
                    OFFSET 2.48547 -0.328903 0.83742
                  }
                }
              }
              JOINT lRing1
              {
                OFFSET 8.82822 0.546677 1.51678
                CHANNELS 3 Zrotation Xrotation Yrotation
                JOINT lRing2
                {
                  OFFSET 2.60934 -0.819778 -0.0198488
                  CHANNELS 3 Zrotation Xrotation Yrotation
                  End Site
                  {
                    OFFSET 2.33842 -0.294052 0.168128
                  }
                }
              }
              JOINT lPinky1
              {
                OFFSET 8.27202 -0.0477905 -0.4584
                CHANNELS 3 Zrotation Xrotation Yrotation
                JOINT lPinky2
                {
                  OFFSET 1.82734 -0.647385 -0.700984
                  CHANNELS 3 Zrotation Xrotation Yrotation
                  End Site
                  {
                    OFFSET 1.69225 -0.51767 -0.607171
                  }
                }
              }
            }
          }
        }
      }
    }
  }
  JOINT rButtock
  {
    OFFSET -8.77824 4.35084 1.2192
    CHANNELS 3 Zrotation Xrotation Yrotation
    JOINT rThigh
    {
      OFFSET 0 -1.70687 -2.19456
      CHANNELS 3 Zrotation Xrotation Yrotation
      JOINT rShin
      {
        OFFSET 0 -36.8199 0.73152
        CHANNELS 3 Zrotation Xrotation Yrotation
        JOINT rFoot
        {
          OFFSET 0.73152 -45.1104 -5.12064
          CHANNELS 3 Zrotation Xrotation Yrotation
          End Site
          {
            OFFSET -1.1221 -3.69964 12.103
          }
        }
      }
    }
  }
  JOINT lButtock
  {
    OFFSET 8.77824 4.35084 1.2192
    CHANNELS 3 Zrotation Xrotation Yrotation
    JOINT lThigh
    {
      OFFSET 0 -1.70687 -2.19456
      CHANNELS 3 Zrotation Xrotation Yrotation
      JOINT lShin
      {
        OFFSET 0 -36.8199 0.73152
        CHANNELS 3 Zrotation Xrotation Yrotation
        JOINT lFoot
        {
          OFFSET -0.73152 -45.1104 -5.12064
          CHANNELS 3 Zrotation Xrotation Yrotation
          End Site
          {
            OFFSET 1.1221 -3.69964 12.103
          }
        }
      }
    }
  }
}
MOTION
Frames:	7
Frame Time:	0.00833333
0.01664 53.4282 0.018001 -16.6899 -28.3204 12.6047 12.1297 10.4871 2.38465 2.00157 -7.30151 0.81651 -0.089763 13.3381 7.16977 3.93446 -24.9135 15.068301 -0.0 0.0 0.0 -0.0 0.0 0.0 -0.0 -0.0 -0.0 107.072 45.8517 -57.973602 -26.9823 -44.063 91.5694 -5.04249 -51.9244 -10.3346 0.0 -0.0 0.0 0.0 -0.0 0.0 0.0 -0.0 0.0 7.73091 5.47488 0.417314 0.0 -0.0 0.0 2.90554 0.965183 0.102902 0.0 -0.0 0.0 10.2786 0.731801 0.025912 0.0 -0.0 0.0 2.22167 -0.733487 -0.20892 -0.0 -0.0 -0.0 -46.0016 13.125 -38.7778 12.2389 -5.61755 -22.0732 2.89855 42.6005 -7.42547 0.0 0.0 0.0 0.0 0.0 0.0 0.0 0.0 0.0 -7.73091 5.47488 -0.417314 0.0 0.0 0.0 -2.90554 0.965183 -0.102902 0.0 0.0 0.0 -10.2786 0.731801 -0.025912 0.0 0.0 0.0 -2.22167 -0.733487 0.20892 -0.0 0.0 -0.0 -10.4179 8.92192 -2.98797 0.031837 32.1822 2.21238 -7.79795 -16.2555 -30.8483 0.0 0.0 0.0 77.2222 -54.0628 65.1399 2.76479 72.9648 -2.71184 -0.62591 1.95504 -5.17715
0.03203 53.4109 0.0357 -16.7292 -28.3254 12.6139 12.1627 10.4934 2.36302 2.00559 -7.30094 0.811655 -0.103891 13.3621 7.16757 3.94847 -24.9537 15.068099 -0.0 0.0 0.0 -0.0 0.0 0.0 -0.0 -0.0 -0.0 107.099 45.8577 -58.017002 -26.9802 -44.0685 91.5802 -5.04433 -51.9306 -10.3369 0.0 -0.0 -0.0 0.0 -0.0 -0.0 0.0 -0.0 -0.0 7.73091 5.47488 0.417314 0.0 -0.0 -0.0 2.90554 0.965183 0.102902 0.0 -0.0 -0.0 10.2786 0.731801 0.025912 0.0 -0.0 -0.0 2.22167 -0.733487 -0.20892 -0.0 -0.0 -0.0 -46.0627 13.0649 -38.7859 12.2161 -5.60131 -22.0289 2.89202 42.5636 -7.41582 0.0 0.0 0.0 0.0 0.0 0.0 0.0 0.0 0.0 -7.73091 5.47488 -0.417314 0.0 0.0 0.0 -2.90554 0.965183 -0.102902 0.0 0.0 0.0 -10.2786 0.731801 -0.025912 0.0 0.0 0.0 -2.22167 -0.733487 0.20892 -0.0 0.0 -0.0 -10.4191 8.94133 -2.97798 0.032099 32.1621 2.21275 -7.78255 -16.2472 -30.826498 0.0 0.0 0.0 77.2588 -54.1024 65.1098 2.77612 73.0256 -2.72799 -0.625366 1.93976 -5.09762
0.047631 53.3992 0.052901 -16.7784 -28.3281 12.63 12.2222 10.5015 2.33304 2.00628 -7.30189 0.804717 -0.114611 13.3847 7.16704 3.95802 -24.9904 15.069001 -0.0 0.0 0.0 -0.0 0.0 0.0 -0.0 -0.0 -0.0 107.123 45.8655 -58.060596 -26.9782 -44.0738 91.5909 -5.0537 -51.9622 -10.3488 -0.0 0.0 -0.0 -0.0 0.0 -0.0 -0.0 0.0 -0.0 7.73091 5.47488 0.417314 -0.0 0.0 -0.0 2.90554 0.965183 0.102902 -0.0 0.0 -0.0 10.2786 0.731801 0.025912 -0.0 0.0 -0.0 2.22167 -0.733487 -0.20892 -0.0 -0.0 -0.0 -46.1283 13.0055 -38.7963 12.1953 -5.58657 -21.9886 2.86931 42.435 -7.38224 -0.0 -0.0 -0.0 -0.0 -0.0 -0.0 -0.0 -0.0 -0.0 -7.73091 5.47488 -0.417314 -0.0 -0.0 -0.0 -2.90554 0.965183 -0.102902 -0.0 -0.0 -0.0 -10.2786 0.731801 -0.025912 -0.0 -0.0 -0.0 -2.22167 -0.733487 0.20892 -0.0 0.0 -0.0 -10.4016 8.96464 -2.97764 0.03247 32.1391 2.21305 -7.76737 -16.2467 -30.794903 0.0 0.0 0.0 77.3177 -54.155 65.0787 2.78805 73.0899 -2.74523 -0.624032 1.92923 -5.01267
0.06432 53.3924 0.071502 -16.8262 -28.3373 12.6477 12.2742 10.5142 2.30444 2.00877 -7.30416 0.798149 -0.122333 13.4058 7.16725 3.96523 -25.0282 15.070801 -0.0 0.0 0.0 -0.0 0.0 0.0 0.0 0.0 0.0 107.141 45.872 -58.0961 -26.9772 -44.0764 91.59609 -5.06559 -52.0023 -10.3639 -0.0 0.0 -0.0 -0.0 0.0 -0.0 -0.0 0.0 -0.0 7.73091 5.47488 0.417314 -0.0 0.0 -0.0 2.90554 0.965183 0.102902 -0.0 0.0 -0.0 10.2786 0.731801 0.025912 -0.0 0.0 -0.0 2.22167 -0.733487 -0.20892 0.0 0.0 0.0 -46.1783 12.9597 -38.8098 12.1785 -5.57461 -21.9559 2.8438 42.2891 -7.34437 -0.0 -0.0 -0.0 -0.0 -0.0 -0.0 -0.0 -0.0 -0.0 -7.73091 5.47488 -0.417314 -0.0 -0.0 -0.0 -2.90554 0.965183 -0.102902 -0.0 -0.0 -0.0 -10.2786 0.731801 -0.025912 -0.0 -0.0 -0.0 -2.22167 -0.733487 0.20892 -0.0 0.0 -0.0 -10.3914 8.97704 -2.97805 0.032726 32.1301 2.21364 -7.75616 -16.2568 -30.757801 0.0 0.0 0.0 77.3668 -54.2102 65.0395 2.79969 73.1522 -2.76248 -0.622391 1.92282 -4.92031
0.08299 53.386005 0.084901 -16.8593 -28.3577 12.6588 12.2845 10.5346 2.28693 2.01822 -7.30755 0.794407 -0.127467 13.4255 7.16727 3.97224 -25.072 15.073599 -0.0 0.0 0.0 -0.0 0.0 0.0 0.0 0.0 0.0 107.151 45.874 -58.1151 -26.9783 -44.0734 91.5901 -5.075 -52.034 -10.3758 -0.0 0.0 -0.0 -0.0 0.0 -0.0 -0.0 0.0 -0.0 7.73091 5.47488 0.417314 -0.0 0.0 -0.0 2.90554 0.965183 0.102902 -0.0 0.0 -0.0 10.2786 0.731801 0.025912 -0.0 0.0 -0.0 2.22167 -0.733487 -0.20892 0.0 0.0 0.0 -46.1929 12.9402 -38.827 12.1673 -5.56673 -21.9343 2.82842 42.2003 -7.32146 -0.0 -0.0 -0.0 -0.0 -0.0 -0.0 -0.0 -0.0 -0.0 -7.73091 5.47488 -0.417314 -0.0 -0.0 -0.0 -2.90554 0.965183 -0.102902 -0.0 -0.0 -0.0 -10.2786 0.731801 -0.025912 -0.0 -0.0 -0.0 -2.22167 -0.733487 0.20892 -0.0 0.0 -0.0 -10.4146 8.96373 -2.9703 0.032643 32.1525 2.21487 -7.75266 -16.2805 -30.7191 0.0 0.0 0.0 77.3742 -54.2577 64.985 2.81011 73.2067 -2.7786 -0.620926 1.91994 -4.81858
0.10543 53.3794 0.0898 -16.8683 -28.3946 12.6594 12.2459 10.5636 2.28105 2.03698 -7.3124 0.793688 -0.129099 13.4453 7.16688 3.97869 -25.1241 15.076999 -0.0 0.0 0.0 -0.0 0.0 0.0 0.0 0.0 0.0 107.15 45.8709 -58.112904 -26.9824 -44.0626 91.5686 -5.08149 -52.0558 -10.3841 -0.0 0.0 0.0 -0.0 0.0 -0.0 -0.0 0.0 0.0 7.73091 5.47488 0.417314 -0.0 0.0 0.0 2.90554 0.965183 0.102902 -0.0 0.0 0.0 10.2786 0.731801 0.025912 -0.0 0.0 0.0 2.22167 -0.733487 -0.20892 0.0 0.0 0.0 -46.1619 12.9562 -38.8489 12.1622 -5.56307 -21.9244 2.8281 42.1984 -7.32097 -0.0 -0.0 -0.0 -0.0 -0.0 -0.0 -0.0 -0.0 -0.0 -7.73091 5.47488 -0.417314 -0.0 -0.0 -0.0 -2.90554 0.965183 -0.102902 -0.0 -0.0 -0.0 -10.2786 0.731801 -0.025912 -0.0 -0.0 -0.0 -2.22167 -0.733487 0.20892 -0.0 0.0 -0.0 -10.477 8.92225 -2.95177 0.032178 32.2088 2.21679 -7.75794 -16.3204 -30.6778 0.0 0.0 0.0 77.3327 -54.2956 64.9129 2.8196 73.2534 -2.79396 -0.61976 1.919 -4.70526
0.130899 53.3726 0.093701 -16.8479 -28.451 12.6452 12.1759 10.5995 2.2823 2.06198 -7.31871 0.794836 -0.127352 13.4645 7.16656 3.98375 -25.1818 15.0812 -0.0 0.0 0.0 -0.0 0.0 0.0 0.0 0.0 0.0 107.14 45.8644 -58.094597 -26.9887 -44.0459 91.5353 -5.08743 -52.0757 -10.3916 -0.0 0.0 0.0 -0.0 0.0 0.0 -0.0 0.0 0.0 7.73091 5.47488 0.417314 -0.0 0.0 0.0 2.90554 0.965183 0.102902 -0.0 0.0 0.0 10.2786 0.731801 0.025912 -0.0 0.0 0.0 2.22167 -0.733487 -0.20892 0.0 0.0 0.0 -46.0975 12.9989 -38.875 12.1622 -5.56304 -21.9243 2.83536 42.2403 -7.33179 -0.0 -0.0 -0.0 -0.0 -0.0 -0.0 -0.0 -0.0 -0.0 -7.73091 5.47488 -0.417314 -0.0 -0.0 -0.0 -2.90554 0.965183 -0.102902 -0.0 -0.0 -0.0 -10.2786 0.731801 -0.025912 -0.0 -0.0 -0.0 -2.22167 -0.733487 0.20892 -0.0 0.0 -0.0 -10.5651 8.85999 -2.9273 0.031438 32.2906 2.21924 -7.76994 -16.3745 -30.6323 0.0 0.0 0.0 77.259 -54.329 64.8271 2.82844 73.2949 -2.80891 -0.618665 1.9208 -4.58197
